<svg id="visual" viewBox="0 0 960 540" width="960" height="540" xmlns="http://www.w3.org/2000/svg" xmlns:xlink="http://www.w3.org/1999/xlink" version="1.1"><path d="M0 174L87 217L175 163L262 206L349 174L436 217L524 104L611 131L698 141L785 114L873 125L960 93L960 0L873 0L785 0L698 0L611 0L524 0L436 0L349 0L262 0L175 0L87 0L0 0Z" fill="#0066ff"></path><path d="M0 255L87 357L175 266L262 352L349 325L436 314L524 287L611 314L698 347L785 298L873 276L960 325L960 91L873 123L785 112L698 139L611 129L524 102L436 215L349 172L262 204L175 161L87 215L0 172Z" fill="#7789ff"></path><path d="M0 314L87 406L175 336L262 390L349 395L436 384L524 341L611 384L698 390L785 374L873 357L960 363L960 323L873 274L785 296L698 345L611 312L524 285L436 312L349 323L262 350L175 264L87 355L0 253Z" fill="#acafff"></path><path d="M0 406L87 444L175 428L262 455L349 460L436 492L524 433L611 482L698 455L785 417L873 411L960 449L960 361L873 355L785 372L698 388L611 382L524 339L436 382L349 393L262 388L175 334L87 404L0 312Z" fill="#d7d6ff"></path><path d="M0 541L87 541L175 541L262 541L349 541L436 541L524 541L611 541L698 541L785 541L873 541L960 541L960 447L873 409L785 415L698 453L611 480L524 431L436 490L349 458L262 453L175 426L87 442L0 404Z" fill="#ffffff"></path></svg>